<?xml version="1.0" encoding="utf-8"?>
<svg version="1.1" id="layer" xmlns="http://www.w3.org/2000/svg" xmlns:xlink="http://www.w3.org/1999/xlink" viewBox="0 0 207 40"><g fill="none"><path fill="#FFF" d="M66.64 2.74A10.49 10.49 0 0059.44 0a10 10 0 00-10.3 10.21 10.31 10.31 0 0020.61 0 9.89 9.89 0 00-3.11-7.47zm-1.37 7.45c0 2.92-1.82 6.06-5.83 6.06a5.68 5.68 0 01-5.81-6.06 5.69 5.69 0 015.81-6.07c4.01 0 5.83 3.14 5.83 6.07zm22.45-4.33c3.82 0 5.18 2.85 5.22 5.29v8.58a.28.28 0 01-.28.27h-3.55a.27.27 0 01-.27-.27v-7.84a2 2 0 00-2.12-2.23A2.19 2.19 0 0084.49 12v7.73a.27.27 0 01-.28.27h-3.63a.27.27 0 01-.27-.27v-7.84a2 2 0 00-2.12-2.23A2.18 2.18 0 0075.93 12v7.73c0 .15-.12.27-.27.27H72a.27.27 0 01-.28-.28V6.51a.27.27 0 01.28-.28h3.5a.27.27 0 01.27.28v.8a5.41 5.41 0 013.69-1.45 4.58 4.58 0 014 2 5 5 0 014.26-2zm15.77.02a5.59 5.59 0 00-3.83 1.34V.27a.27.27 0 00-.27-.27h-3.6a.27.27 0 00-.28.27v19.45a.27.27 0 00.28.27h3.55c.15 0 .27-.12.27-.27v-.83a5.16 5.16 0 003.74 1.43c3.92 0 6.66-3 6.66-7.26s-2.62-7.18-6.52-7.18zm2.31 7.21c0 2.12-1.21 3.48-3.08 3.48-1.55 0-3.11-1.07-3.11-3.48a3.11 3.11 0 013.11-3.46c1.87 0 3.08 1.37 3.08 3.46zm18.71-6.58l-.03 10.82c.003.789.05 1.577.14 2.36a.24.24 0 01-.07.21.25.25 0 01-.2.09h-3.5a.26.26 0 01-.26-.21 4.62 4.62 0 01-.09-.73 5 5 0 01-3.5 1.29 5.21 5.21 0 01-5.39-5.48V6.51a.27.27 0 01.27-.28h3.66a.27.27 0 01.28.28v7.62a2.25 2.25 0 104.49.06V6.51a.27.27 0 01.27-.28h3.66a.27.27 0 01.27.28zM140.72.27a.27.27 0 00-.27-.27h-3.61a.27.27 0 00-.27.27v6.78A5 5 0 00133 5.91c-3.86 0-6.77 3.09-6.77 7.18s2.89 7.23 6.88 7.23a4.93 4.93 0 003.58-1.32c.019.275.055.55.11.82a.26.26 0 00.26.21h3.5a.25.25 0 00.2-.09.26.26 0 00.07-.21c-.05-.51-.11-1.46-.11-2.36V.27zm-4.09 12.79c0 2.1-1.23 3.51-3.06 3.51s-3.08-1.36-3.08-3.48 1.23-3.44 3.08-3.44 3.06 1.35 3.06 3.41zm13.01-1.61c2.65.55 4.29 1.98 4.29 4.21s-1.73 4.63-5.53 4.63a6.4 6.4 0 01-4.48-1.55 4.71 4.71 0 01-1.44-2.78.28.28 0 01.22-.3l3.13-.67a.32.32 0 01.23.05.26.26 0 01.1.2 2 2 0 002.21 1.76c.93 0 1.51-.51 1.51-1s-.41-.83-1.24-1l-1.79-.41c-2.54-.55-4-2.08-4-4.21 0-2.6 2.34-4.6 5.34-4.6 4.03 0 5.4 2.55 5.58 4.06a.27.27 0 01-.21.29l-3.06.68a.27.27 0 01-.21 0 .25.25 0 01-.12-.18 1.78 1.78 0 00-2-1.54c-.82 0-1.46.36-1.46 1s.62.85 1 .91l1.93.45zm22.13-5.59c3.81 0 5.17 2.85 5.17 5.29v8.58a.28.28 0 01-.28.27h-3.55a.27.27 0 01-.27-.27v-7.84a2 2 0 00-2.12-2.23 2.19 2.19 0 00-2.23 2.34v7.73c0 .15-.12.27-.27.27h-3.64a.27.27 0 01-.27-.27v-7.84a2 2 0 00-2.12-2.23 2.18 2.18 0 00-2.26 2.34v7.73c0 .15-.12.27-.27.27H156a.27.27 0 01-.28-.28V6.51a.27.27 0 01.28-.28h3.49a.27.27 0 01.27.28v.8a5.41 5.41 0 013.69-1.45 4.58 4.58 0 014.05 2 5 5 0 014.27-2zm19.48 5.27c0-3.32-2.31-5.3-6.17-5.3-3.67 0-5.83 2.31-6.08 4.6a.27.27 0 00.22.29l3.25.67a.29.29 0 00.22 0 .31.31 0 00.11-.2 2.11 2.11 0 012.31-1.9c1.24 0 2 .55 2 1.45 0 .26-.09.57-.78.67l-3.33.48c-2.68.38-4.28 2-4.28 4.27 0 2.76 2.53 4.25 4.92 4.25a4.94 4.94 0 003.75-1.48c.014.3.05.597.11.89a.27.27 0 00.27.21h3.36a.27.27 0 00.21-.09.32.32 0 00.06-.23 13.84 13.84 0 01-.16-2l.01-6.58zm-4.13 3v.28a2.45 2.45 0 01-2.7 2.78c-1 0-1.49-.63-1.49-1.25 0-1 .79-1.3 1.45-1.4l2.74-.41zm14.45-8.25c3.19 0 5.17 2.12 5.17 5.51v8.32a.27.27 0 01-.28.27h-3.66a.27.27 0 01-.27-.27V12a2.09 2.09 0 00-2.23-2.35 2.24 2.24 0 00-2.26 2.47v7.6c0 .15-.12.27-.27.27h-3.66a.28.28 0 01-.28-.27V6.51a.28.28 0 01.28-.28h3.55a.27.27 0 01.27.28v.82a5.11 5.11 0 013.64-1.45zM58.33 30.2c2.67.51 4.33 2.22 4.3 4.48 0 3.05-2.88 4.69-5.59 4.69-3.88 0-5.88-2.38-6.14-4.73a.13.13 0 01.1-.15l2.76-.68a.15.15 0 01.11 0 .21.21 0 01.06.1 2.86 2.86 0 003.16 2.64c1.41 0 2.31-.67 2.31-1.67 0-.8-.64-1.4-1.72-1.61l-2.11-.42c-2.55-.5-4.07-2.13-4.07-4.35 0-2.62 2.4-4.76 5.4-4.76 4.4 0 5.35 3.02 5.54 3.94a.13.13 0 01-.09.16l-2.64.79a.14.14 0 01-.11 0 .13.13 0 01-.07-.09 2.43 2.43 0 00-2.61-2 2 2 0 00-2.23 1.74c0 .8.53 1.34 1.53 1.53l2.11.39zm10.33-1.95a5.35 5.35 0 00-5.29 5.52 5.4 5.4 0 005.54 5.6A4.82 4.82 0 0073.82 36a.12.12 0 000-.1.11.11 0 00-.08-.07l-2.36-.68a.14.14 0 00-.17.08 2.19 2.19 0 01-2.26 1.47 2.4 2.4 0 01-2.49-2.06h7.35a.14.14 0 00.14-.13v-.08a7.15 7.15 0 000-.77c.05-3.33-2.02-5.41-5.29-5.41zm-2.15 4.26a2.12 2.12 0 012.19-1.75 2 2 0 012.2 1.75h-4.39zm15.54-3.99a.12.12 0 01.07.13v2.81a.16.16 0 010 .11.14.14 0 01-.11 0 4.67 4.67 0 00-.83-.08c-1.7 0-2.57.93-2.57 2.76v4.67a.13.13 0 01-.13.14h-2.84a.13.13 0 01-.13-.14V28.71a.13.13 0 01.13-.13h2.75a.13.13 0 01.14.13v1a3.45 3.45 0 012.84-1.24c.24 0 .46.05.68.05zm11.76.04a.14.14 0 01.13.08.15.15 0 010 .13L89.87 39a.13.13 0 01-.13.08h-2.83a.16.16 0 01-.13-.08l-4.27-10.25a.15.15 0 010-.13.14.14 0 01.12-.06h3.09a.13.13 0 01.13.09l2.47 6.51 2.36-6.51a.13.13 0 01.13-.09h3zm2.71-5.08a1.85 1.85 0 110 3.69 1.85 1.85 0 110-3.69zm-1.41 5.08h2.83a.14.14 0 01.14.14v10.22a.14.14 0 01-.14.14h-2.83a.14.14 0 01-.14-.14V28.7a.14.14 0 01.14-.14zm15.1 7.1a.13.13 0 01.11.14 5 5 0 01-5 3.55 5.56 5.56 0 11-.08-11.12 4.92 4.92 0 015 3.55.13.13 0 01-.09.16l-2.54.84a.17.17 0 01-.1 0 .18.18 0 01-.07-.08 2.15 2.15 0 00-2.19-1.63 2.49 2.49 0 00-2.53 2.73 2.54 2.54 0 002.55 2.75 2.26 2.26 0 002.28-1.62.15.15 0 01.06-.09.22.22 0 01.11 0l2.49.82zm5.88-7.41a5.36 5.36 0 00-5.29 5.52 5.4 5.4 0 005.55 5.6 4.82 4.82 0 004.9-3.34.12.12 0 000-.1.18.18 0 00-.08-.07l-2.37-.68a.12.12 0 00-.16.08 2.2 2.2 0 01-2.26 1.47 2.39 2.39 0 01-2.49-2.06h7.35a.13.13 0 00.13-.13.32.32 0 010-.08v-.77c.03-3.36-2-5.44-5.28-5.44zm-2.15 4.26a2.14 2.14 0 012.19-1.75 2 2 0 012.2 1.75h-4.39zm13.6.08c2.01.41 3.21 1.6 3.21 3.29s-1.32 3.5-4.21 3.5a4.79 4.79 0 01-3.41-1.18 3.53 3.53 0 01-1.09-2.1.14.14 0 01.1-.15l2.43-.52a.11.11 0 01.11 0 .17.17 0 01.06.1 1.59 1.59 0 001.78 1.43c.76 0 1.25-.44 1.25-.88s-.33-.73-1-.87l-1.39-.31c-1.94-.42-3.05-1.58-3.05-3.19 0-1.95 1.78-3.48 4.06-3.48 3.07 0 4.11 1.93 4.25 3.07a.15.15 0 01-.11.15l-2.36.52a.14.14 0 01-.11 0 .17.17 0 01-.06-.1 1.44 1.44 0 00-1.6-1.25c-.68 0-1.2.33-1.2.88s.53.72.84.78l1.5.31zM18.4 6.89a8.21 8.21 0 00-11.51-.07l-.08.07A8.195 8.195 0 0018.4 18.48l.08-.08a8.21 8.21 0 00-.08-11.51zm-2.78 8.73a4.2 4.2 0 110-5.9 4.22 4.22 0 010 5.9zM5.56 33.81A18.89 18.89 0 010 21a.63.63 0 01.63-.66H3.8a.63.63 0 01.63.59c.306 7.601 6.399 13.694 14 14a.61.61 0 01.59.62v3.18a.62.62 0 01-.65.62 18.9 18.9 0 01-12.81-5.54z"></path><path fill="#66D9AC" d="M32.48 21A8.2 8.2 0 0021 20.9l-.1.1a8.19 8.19 0 0011.58 11.56l.08-.08A8.21 8.21 0 0032.48 21zm-2.78 8.7a4.2 4.2 0 110-5.9 4.22 4.22 0 010 5.9zM20.94 4.43a.63.63 0 01-.6-.63V.63A.63.63 0 0121 0c10.003.332 18.034 8.367 18.36 18.37a.62.62 0 01-.62.65h-3.18a.61.61 0 01-.62-.59c-.306-7.601-6.399-13.694-14-14z"></path></g></svg>